# xmcd CD database file generated by libcdaudio 0.99.12p2
# 
# Track frame offsets:
#       150
#       14980
#       31225
#       52053
#       65253
#       84858
#       99055
#       114688
#       125740
#       138265
#       149223
#       163210
# 
# Disc length: 2317 seconds
# 
# Revision: 0
# Processed by: cddbd v1.5.2PL0 Copyright (c) Steve Scherf et al.
# Submitted via: libcdaudio 0.99.12p2
# 
DISCID=ae090b0c
DTITLE=Roger Whittaker - 37 All-Time Favorites - CD 2 (Love Songs)
DYEAR=1900
DGENRE=
TTITLE0=You Needed Me
TTITLE1=I'll be Seeing You
TTITLE2=Try to Remember
TTITLE3=Unchained Melody
TTITLE4=She Believes in Me
TTITLE5=There Goes my Everything
TTITLE6=The Twelfth of Never
TTITLE7=Sentimental Journey
TTITLE8=Somewhere my Love
TTITLE9=I Love You Because
TTITLE10=Stranger on the Shore
TTITLE11=I Can't Help It (If I'm Still in Love With You)
EXTD=
EXTT0=
EXTT1=
EXTT2=
EXTT3=
EXTT4=
EXTT5=
EXTT6=
EXTT7=
EXTT8=
EXTT9=
EXTT10=
EXTT11=
PLAYORDER=
